<svg xmlns="http://www.w3.org/2000/svg" xmlns:xlink="http://www.w3.org/1999/xlink" version="1.1" x="0px" y="0px" viewBox="0 0 100 125" enable-background="new 0 0 100 100" xml:space="preserve"><path d="M92.384,60.329V44.59c0-0.552-0.447-1-1-1h-9.717l2.09-18.252c0,0,0.001-0.001,0.001-0.002c0-0.002,0-0.005,0-0.007  l0.001-0.005c0,0,0-0.001,0-0.002c0.253-2.024-0.064-3.567-0.978-4.714c-1.596-2.008-4.563-2.31-7.997-2.659  c-3.232-0.329-6.895-0.701-9.826-2.621c-0.001,0-0.002,0-0.003-0.001c-0.001,0-0.002-0.002-0.003-0.002  c-4.531-2.922-6.898-2.911-9.715-2.919h-0.211h-0.211c-2.772,0-5.182-0.004-9.714,2.919c-0.001,0-0.001,0.002-0.003,0.002  c-0.001,0.001-0.002,0.001-0.003,0.001c-2.932,1.919-6.594,2.292-9.826,2.621c-3.435,0.35-6.401,0.651-7.998,2.659  c-0.912,1.146-1.23,2.688-0.978,4.71c0,0.002,0,0.003,0,0.005l3.145,27.557h-9c-0.036,0-0.067,0.017-0.102,0.021  c-0.035,0.004-0.068-0.007-0.103,0.001c-0.032,0.007-0.057,0.027-0.087,0.037c-0.066,0.021-0.127,0.047-0.187,0.08  c-0.055,0.031-0.105,0.063-0.153,0.104c-0.05,0.042-0.092,0.086-0.133,0.137c-0.041,0.05-0.075,0.1-0.105,0.156  c-0.03,0.056-0.051,0.111-0.07,0.173c-0.021,0.064-0.033,0.129-0.04,0.197c-0.003,0.033-0.019,0.062-0.019,0.095  c0,0.036,0.017,0.065,0.021,0.101c0.003,0.035-0.007,0.068,0,0.104l1.018,4.869c-1.433,0.726-2.741,1.66-3.868,2.783  c-0.008,0.007-0.018,0.009-0.025,0.017s-0.01,0.018-0.017,0.025c-1.521,1.528-2.704,3.385-3.467,5.444H2.5c-0.552,0-1,0.447-1,1  s0.448,1,1,1h10.003c-0.228,1.043-0.356,2.123-0.356,3.233c0,8.348,6.792,15.14,15.139,15.14c8.348,0,15.14-6.792,15.14-15.14  c0-0.55-0.033-1.091-0.09-1.626c1.469,0.15,2.929,0.268,4.377,0.355v1.507c-0.538-0.061-1.078-0.125-1.62-0.202  c-0.542-0.074-1.053,0.303-1.13,0.85c-0.077,0.547,0.303,1.054,0.85,1.131c3.536,0.501,6.983,0.668,10.009,0.668  c5.871,0,10.158-0.629,10.425-0.669c0.546-0.082,0.922-0.592,0.841-1.138c-0.083-0.546-0.59-0.914-1.138-0.841  c-0.023,0.004-0.61,0.089-1.609,0.194v-1.493c2.172-0.12,3.888-0.26,4.97-0.358c-0.057,0.533-0.09,1.073-0.09,1.622  c0,8.348,6.791,15.14,15.138,15.14c8.349,0,15.142-6.792,15.142-15.14C98.5,67.492,96.087,63.092,92.384,60.329z M93.319,81.003  l-7.326-7.328c0.033-0.071,0.062-0.145,0.089-0.219h10.367C96.231,76.327,95.092,78.94,93.319,81.003z M70.271,73.456h10.366  c0.027,0.074,0.056,0.148,0.089,0.22L73.4,81.002C71.628,78.94,70.489,76.327,70.271,73.456z M73.399,63.911l7.328,7.326  c-0.033,0.071-0.062,0.145-0.089,0.219H70.271C70.489,68.586,71.628,65.973,73.399,63.911z M82.358,59.367v10.368  c-0.074,0.027-0.146,0.055-0.217,0.088l-7.328-7.327C76.875,60.725,79.487,59.585,82.358,59.367z M91.905,62.495l-7.327,7.328  c-0.071-0.033-0.146-0.061-0.22-0.089V59.367C87.229,59.585,89.843,60.724,91.905,62.495z M82.717,73.1L82.717,73.1L82.717,73.1  c-0.165-0.165-0.267-0.393-0.267-0.643c0-0.502,0.407-0.91,0.908-0.91c0.502,0,0.911,0.408,0.911,0.91  c0,0.501-0.409,0.909-0.911,0.909C83.108,73.366,82.881,73.265,82.717,73.1z M82.141,75.09c0.071,0.033,0.144,0.061,0.218,0.088  v10.367c-2.87-0.218-5.482-1.356-7.544-3.129L82.141,75.09z M84.358,75.179c0.075-0.028,0.148-0.056,0.221-0.09l7.326,7.328  c-2.063,1.771-4.676,2.91-7.547,3.128V75.179z M86.081,71.456c-0.027-0.074-0.056-0.147-0.089-0.219l7.327-7.328  c1.772,2.063,2.912,4.676,3.13,7.547H86.081z M90.384,45.59v13.467c-2.102-1.106-4.489-1.74-7.025-1.74  c-1.137,0-2.241,0.137-3.307,0.375l1.386-12.102H90.384z M40.375,71.456H30.007c-0.027-0.074-0.055-0.147-0.088-0.219l7.327-7.328  C39.019,65.972,40.158,68.585,40.375,71.456z M37.246,81.003l-7.326-7.328c0.033-0.071,0.061-0.145,0.088-0.219h10.368  C40.158,76.327,39.019,78.94,37.246,81.003z M14.198,73.456h10.367c0.027,0.074,0.055,0.147,0.088,0.22l-7.327,7.326  C15.555,78.94,14.416,76.327,14.198,73.456z M17.327,63.91l7.328,7.326c-0.034,0.072-0.062,0.146-0.089,0.22H14.198  C14.416,68.585,15.555,65.973,17.327,63.91z M26.287,59.367v10.368c-0.074,0.027-0.146,0.055-0.218,0.088l-7.328-7.327  C20.803,60.724,23.416,59.585,26.287,59.367z M28.196,72.457c0,0.501-0.408,0.909-0.909,0.909s-0.909-0.408-0.909-0.909  c0-0.502,0.408-0.91,0.909-0.91S28.196,71.955,28.196,72.457z M26.068,75.09c0.071,0.033,0.145,0.061,0.219,0.088v10.367  c-2.871-0.218-5.483-1.356-7.545-3.129L26.068,75.09z M28.287,75.178c0.075-0.027,0.148-0.055,0.219-0.088l7.326,7.327  c-2.062,1.771-4.675,2.91-7.545,3.128V75.178z M28.505,69.823c-0.071-0.033-0.144-0.061-0.218-0.088V59.367  c2.871,0.218,5.483,1.356,7.545,3.128L28.505,69.823z M21.668,54.88h7.998l0.307,2.689c-0.873-0.157-1.768-0.253-2.686-0.253  c-1.729,0-3.384,0.306-4.933,0.842L21.668,54.88z M61.341,72.87c-3.019,0.237-7.624,0.428-12.628,0.02v-1.594  c2.084,0.092,4.12,0.137,6.042,0.137c2.397,0,4.619-0.06,6.586-0.144V72.87z M41.959,68.793c-1.258-5.035-5.032-9.076-9.914-10.698  L28.28,25.096c0-0.002-0.002-0.004-0.002-0.006c0-0.002,0.001-0.004,0-0.006c-0.186-1.469-0.003-2.526,0.558-3.232  c1.072-1.348,3.65-1.61,6.635-1.914c3.456-0.352,7.372-0.751,10.709-2.932c0.001-0.001,0.003-0.001,0.004-0.002  c4.038-2.604,5.998-2.607,8.629-2.6h0.212h0.212c2.661-0.011,4.594-0.003,8.63,2.6c0.001,0.001,0.003,0.001,0.004,0.002  c3.338,2.181,7.253,2.58,10.709,2.932c2.985,0.304,5.563,0.566,6.635,1.914c0.562,0.706,0.744,1.763,0.558,3.231  c0,0.002,0.001,0.005,0.001,0.007c-0.001,0.002-0.002,0.003-0.002,0.005l-3.806,33.23c-1.996,0.765-3.796,1.926-5.283,3.408  c-0.009,0.008-0.021,0.011-0.028,0.019c-0.009,0.009-0.011,0.02-0.019,0.028c-1.897,1.906-3.275,4.318-3.948,7.009  C65.754,69.077,53.874,70.079,41.959,68.793z"/><path d="M65.41,41.391c6.061-0.362,9.992-0.885,10.081-0.897c0.034-0.005,0.061-0.025,0.094-0.033  c0.075-0.018,0.146-0.04,0.213-0.074c0.046-0.023,0.088-0.048,0.129-0.078c0.061-0.042,0.113-0.09,0.163-0.146  c0.033-0.037,0.063-0.073,0.091-0.114c0.042-0.062,0.071-0.128,0.099-0.2c0.019-0.048,0.035-0.094,0.046-0.145  c0.006-0.028,0.021-0.051,0.025-0.081L78,26.053c0.006-0.048-0.01-0.092-0.011-0.139c-0.001-0.068-0.001-0.135-0.017-0.203  c-0.016-0.071-0.047-0.134-0.078-0.199c-0.019-0.04-0.023-0.083-0.048-0.122c-0.012-0.018-0.027-0.03-0.038-0.047  c-0.014-0.019-0.028-0.035-0.043-0.052c-1.295-1.861-3.935-2.14-6.735-2.425c-2.593-0.264-5.532-0.563-7.864-2.09  c-0.001,0-0.002,0-0.003-0.001c-0.001,0-0.002-0.002-0.003-0.002c-3.713-2.395-5.703-2.404-7.962-2.392h-0.172h-0.171  c-2.302,0.01-4.25-0.002-7.962,2.392c-0.001,0-0.001,0.001-0.002,0.002s-0.003,0-0.004,0.001c-2.333,1.527-5.271,1.826-7.864,2.09  c-2.804,0.286-5.448,0.565-6.741,2.431c-0.014,0.017-0.027,0.032-0.04,0.049c-0.012,0.018-0.028,0.031-0.04,0.049  c-0.025,0.04-0.03,0.085-0.049,0.126c-0.03,0.063-0.06,0.124-0.076,0.193c-0.016,0.069-0.016,0.137-0.016,0.207  c-0.001,0.046-0.017,0.089-0.011,0.136l1.654,13.568c0.003,0.026,0.018,0.047,0.023,0.072c0.011,0.058,0.031,0.11,0.052,0.164  c0.025,0.064,0.052,0.125,0.089,0.182c0.03,0.046,0.063,0.086,0.101,0.127c0.047,0.051,0.096,0.096,0.152,0.136  c0.044,0.032,0.088,0.059,0.138,0.083c0.065,0.033,0.133,0.054,0.206,0.072c0.033,0.008,0.061,0.028,0.096,0.033  c3.386,0.463,6.778,0.772,10.081,0.965v22.972c0,0.553,0.448,1,1,1H64.41c0.553,0,1-0.447,1-1V41.391z M75.962,26.241l-1.503,12.367  c-1.392,0.166-4.63,0.517-9.049,0.783V23.952c1.819,0.534,3.689,0.728,5.417,0.904C73.107,25.087,75.086,25.3,75.962,26.241z   M47.978,22.453L47.978,22.453C47.978,22.453,47.978,22.452,47.978,22.453c0.002-0.001,0.004-0.002,0.006-0.003c0,0,0,0,0,0  c3.212-2.07,4.675-2.073,6.87-2.069h0.173h0.173c2.198-0.012,3.66-0.002,6.877,2.073c0.001,0.001,0.003,0.001,0.004,0.002  c0.433,0.282,0.879,0.518,1.33,0.732V39.5c-4.743,0.236-10.557,0.345-16.767,0.06V23.188C47.096,22.972,47.544,22.736,47.978,22.453  z M35.596,38.611l-1.508-12.367c0.874-0.943,2.854-1.156,5.137-1.389c1.729-0.176,3.598-0.369,5.417-0.903v15.503  C41.675,39.278,38.636,39.006,35.596,38.611z M54.212,41.731c3.339,0,6.438-0.095,9.198-0.231v21.932H46.643V41.561  C49.25,41.679,51.792,41.731,54.212,41.731z"/></svg>