<svg xmlns="http://www.w3.org/2000/svg" version="1.1" viewBox="-5.0 -10.0 110.0 135.0">
 <path d="m80.27 36.984c0.34766-0.65625 0.53516-1.3633 0.53516-2.0898 0.003906-1.2188-0.49609-2.5547-1.6055-3.875-2.2852-2.7148-4.7969-5.3398-7.4688-7.793-2.1562-1.9844-4.4023-3.8398-6.6875-5.5273-0.34375 0.65234-0.53125 1.3594-0.53516 2.082-0.003906 1.2305 0.49609 2.5625 1.6055 3.8828 2.2812 2.7148 4.7969 5.3359 7.4648 7.7891 2.1602 1.9844 4.4023 3.8398 6.6875 5.5312zm-14.844 25.617c0.78125 0.78125 0.78125 2.0469 0 2.8281s-2.0469 0.78125-2.8281 0l-32.219-32.219c-0.33984 0.32422-0.67969 0.64453-1.0234 0.96484l49.281 52.98 13.105 4.5938-4.5938-13.105-52.98-49.285-0.96484 1.0234 32.223 32.223zm-57.316-49.992 0.70312-0.70312c0.78125-0.78125 2.0469-0.78125 2.8281 0s0.78125 2.0469 0 2.8281l-0.70312 0.70312 1.1797 1.1758 0.70312-0.70312c0.78125-0.78125 2.0469-0.78125 2.8281 0s0.78125 2.0469 0 2.8281l-0.70313 0.70312 1.1758 1.1758 0.70312-0.70313c0.78125-0.78125 2.0469-0.78125 2.8281 0s0.78125 2.0469 0 2.8281l-0.70312 0.70312 1.7148 1.7148c1.4453-1.5547 2.9453-3.0586 4.4844-4.4922l-13.355-13.355c-0.23047-0.23047-0.57422-0.33203-0.94141-0.30859-0.45703 0.027344-0.94141 0.24219-1.3281 0.63281l-1.8867 1.8945c-0.39453 0.39453-0.60938 0.875-0.64062 1.3281-0.023438 0.36719 0.078125 0.71094 0.30469 0.94531l0.80859 0.80859zm9.8984 15.547-13.527-13.527c-1.082-1.0898-1.5625-2.5469-1.4688-4.0195 0.089843-1.3906 0.69531-2.8047 1.7969-3.9023l1.8906-1.8906c1.1055-1.1016 2.5195-1.707 3.9062-1.7969 1.4805-0.09375 2.9375 0.38281 4.0195 1.4648l13.523 13.523c1.9688-1.668 4-3.2383 6.0781-4.6914 0.80469-0.5625 1.8789-0.44531 2.5508 0.22266 1.7109 1.7031 2.6875 3.8828 2.6953 6.2344 0.007813 2.1367-0.78516 4.3633-2.543 6.4531l-0.11719 0.13672 13.18 12.262 13.188-12.262-0.11328-0.13672c-1.7578-2.0898-2.5508-4.3164-2.543-6.4453 0.007812-2.3633 0.98437-4.5391 2.6914-6.25 0.67578-0.66797 1.75-0.78125 2.5547-0.21875 2.0781 1.4531 4.1133 3.0234 6.0781 4.6914l13.523-13.523c1.082-1.082 2.543-1.5625 4.0195-1.4648 1.3867 0.089844 2.7969 0.69531 3.9023 1.8008l1.8906 1.8867c1.1016 1.1016 1.707 2.5156 1.7969 3.9062 0.09375 1.4727-0.38672 2.9297-1.4648 4.0117l-13.527 13.535 0.25781 0.30469c1.7617 2.0898 2.5508 4.3242 2.543 6.4531-0.007812 2.3516-0.98047 4.5273-2.6914 6.2383-0.67578 0.66797-1.75 0.78125-2.5547 0.21875-2.0195-1.4102-3.9961-2.9375-5.9102-4.5508l-11.863 12.762 28.457 26.473c0.26953 0.25 0.45313 0.55469 0.55078 0.88281l6.1055 17.41c0.36328 1.0391-0.1875 2.1758-1.2266 2.5391-0.44141 0.15625-0.90234 0.14453-1.3125 0l-17.488-6.1328c-0.31641-0.10938-0.58984-0.29297-0.80469-0.52344l-26.059-28.012-26.047 28.012c-0.21484 0.23047-0.48828 0.41406-0.80469 0.52344l-17.488 6.1328c-0.41016 0.14453-0.87109 0.15625-1.3125 0-1.0391-0.36328-1.5898-1.5-1.2266-2.5391l6.1055-17.41c0.097656-0.32422 0.28125-0.63281 0.55078-0.88281l28.469-26.473-11.871-12.762c-1.9141 1.6172-3.8906 3.1406-5.9102 4.5508-0.80469 0.5625-1.8789 0.44531-2.5508-0.22266-1.7148-1.7109-2.6875-3.8867-2.6953-6.2383-0.007813-2.1289 0.78125-4.3633 2.543-6.4531l0.25781-0.30469zm1.1836 6.7422c0.003906 0.72656 0.19141 1.4336 0.53516 2.0898 2.2852-1.6875 4.5273-3.5469 6.6875-5.5312 2.668-2.4531 5.1836-5.0742 7.4648-7.7891 1.1094-1.3203 1.6094-2.6523 1.6055-3.875-0.003906-0.73047-0.1875-1.4375-0.53516-2.0898-2.2852 1.6875-4.5312 3.543-6.6875 5.5273-2.6719 2.4531-5.1836 5.0781-7.4688 7.793-1.1094 1.3203-1.6094 2.6562-1.6055 3.875zm33.73 6.457 1.5 1.3945 12.363-12.363c-0.32422-0.33984-0.64453-0.67969-0.96094-1.0273zm4.4297 4.1211 1.4922 1.3906 11.793-12.688c-0.34375-0.31641-0.68359-0.64063-1.0234-0.96484zm-10.086 13.816-1.7969-1.9336-8.0742 8.0742c-0.78125 0.78125-2.0469 0.78125-2.8281 0s-0.78125-2.0469 0-2.8281l8.1758-8.1758-1.7891-1.9258-28.109 26.141-4.5938 13.105 13.105-4.5938zm41.789-43.855-0.70313-0.69922c-0.78125-0.78125-0.78125-2.0469 0-2.8281s2.0469-0.78125 2.8281 0l0.70312 0.69922 0.80469-0.80469c0.23438-0.23047 0.33203-0.57422 0.30859-0.94141-0.03125-0.45312-0.24609-0.93359-0.63672-1.3281l-1.8906-1.8906c-0.38672-0.39453-0.87109-0.60938-1.3281-0.64062-0.36719-0.023437-0.71094 0.078125-0.94141 0.30859l-13.355 13.355c1.5391 1.4336 3.043 2.9375 4.4844 4.4922l1.7148-1.7148-0.69922-0.69922c-0.78125-0.78125-0.78125-2.0469 0-2.8281s2.0469-0.78125 2.8281 0l0.69922 0.69922 1.1758-1.1758-0.69922-0.69922c-0.78125-0.78125-0.78125-2.0469 0-2.8281s2.0469-0.78125 2.8281 0l0.69922 0.69922 1.1797-1.1797z"/></svg>